<svg style="display:none;">

    <symbol id="arms-logo" viewBox="0 0 2342.8 285.1">
        <path d="M2313.6,129.3l10-20.1q4.5-9.6,11.7-24.1l-1.8-2.7q-5.7,6.6-22.4,43.9Zm-53.6,7.6-6.3-6a29.2,29.2,0,0,1-5.7-6.9,19.7,19.7,0,0,1-2.7-8.2q3.9-20.5,23.4-20.5,16.6,0,30.1,14.2l1.2,0.9q-3-9.1-12.6-14.1a42.2,42.2,0,0,0-19.5-5.1q-21.1,0-25.9,23.5a21.3,21.3,0,0,0,5.7,13.8,24.7,24.7,0,0,0,11.7,8.5h0.6Zm82,60.5a46.2,46.2,0,0,1-1.8,13.5q-6.6,23.5-25.3,34-16,9.3-38.5,9.3l-7.6-.3q-6-.6-23.2-5.4t-27.4-4.5q-9,0-13.8,3l1.5,2.7q3.6-2.1,12.1-2.1,10.5,0,30.7,5.1t29.2,5.4q28.3,0,47.9-16.8t19.6-44.3q0-25-15.7-33.8l-1.3-.6q13.6,14.1,13.6,34.6m-120.3-5.2a260,260,0,0,1-22.9,47.6l0.6,0.7q5.4-5.4,16-5.4,4.6,0.3,21.4,5.1t24.4,6.3q9.3,1.2,15.4,1.5,23.2-.6,40.4-13.8t17.1-36.2a56.5,56.5,0,0,0-8.1-29.5q-8.2-13.2-27.7-18.7l-20.5-4.9q-19.6-4.2-29.8-9t-11.4-13.8a50.7,50.7,0,0,1-.6-7.5q0-12,7.2-19.9,9.3-9.6,24.1-9.6A34.6,34.6,0,0,1,2293.1,96a52.7,52.7,0,0,1,13.8,26.7,416.6,416.6,0,0,1,22-43.9l-6,1.9a41,41,0,0,1-10.6,1.8l-20.2-4.5q-16.9-3.9-26.2-3.9-32.8,0-47.9,22a65.1,65.1,0,0,0-7.5,26.2q0.9,10.8,4.2,17.8,6.6,14.7,18.1,20.4t31.6,9.9q20.1,4.3,29.5,7.9a28.5,28.5,0,0,1,14.5,10.8,32.3,32.3,0,0,1,5.1,18.1,30.2,30.2,0,0,1-6,18.4q-6,8.1-16.9,10.2-3.3.6-17.1,1.8l-6.9-.9-4.9-.3q-33.4-6.9-40.1-44m40.7,41.9q-11.4-6.6-17.1-13.9t-9.3-21h-2.4q2.4,27.4,27.1,35.5ZM2163.6,96.5V229.9l18.7,20.5h-60.6l3,3.6h63.6l-21.7-25.9V96.5l11.8-12.9-1.8-1.8Zm-72.9,97.6-50-98.2,16.2-14.8-1.5-2.4-19.5,16,53,104.6-3,9L2027.1,93.5l19.3-15.4h-66.3l17.4,16.5V210q0,10.5-6.9,20.8t-16.5,13.8h56.6q-20.8-7.5-20.8-34.6V105.8l6,14.1V210q0,9.9,1.8,15.1a25.9,25.9,0,0,0,6,9.9q3.9,4.8,14.4,15.4h-64.1l2.4,3.6h68.7L2034,242a74.1,74.1,0,0,1-7.8-9.3,34.2,34.2,0,0,1-5.7-10.5,35.9,35.9,0,0,1-1.8-12.1V125.7l59.6,119h10.6l43.9-125.9v18.1l-39.8,113.6h-12.9l1.5,3.6h14.2l37-105.5v81.3l-16.9,14.8h57l-16-14.8V95.2l16-17.1h-57l12.4,16.5ZM1810.5,94.7v66.9q-2.9.6-17.4,0.6l-6.6,15.4q4.5-1.2,12.6-2.7a77.2,77.2,0,0,1,9.9-1h1.5v6a49.8,49.8,0,0,0-18,5.7l2.1,2.4q9-3.9,16-3.9v45.7l-17.1,14.8h57.2l-16-14.8V171.2q22-2.1,30.7-4.9l3,6a50.1,50.1,0,0,1-14.2,3.3l-13.5,1.2v53l18.7,20.5h-59.9l3,3.6h63.5l-22.3-25.9V179.9q16.5,0,25.6-4.8,3.9,8.8,9.9,27.4t10.9,37.3q4.5,19,4.5,27.1,4.6-3.6,23-11.8t27.7-9.9q-13.8-9.3-34.4-34.3t-29.5-48.8q42.2-12.9,42.2-42.2,0-25.3-21-38.2t-48.8-12.9q-34.6,0-53.6,16.3Zm33.2,1.8,9.3-.6h10.5q15.9,0,26.5,6.9-9.6-9.9-30.1-9.9h-10.2l-9,.6v66a42.3,42.3,0,0,1-6,.3V87.4q7.9-3.9,20.2-3.9,18,0,29.8,9.1t11.8,26.8q0,33.2-52.7,40.1v-63Zm63.2,175.3a135.4,135.4,0,0,1,26.6-13.6q15.4-5.7,31.4-10.5a181.8,181.8,0,0,1-39.5-34.9,185.1,185.1,0,0,1-29.5-45.2q17.8-5.4,28.3-17.1a39.4,39.4,0,0,0,10.6-27.1q0-16.8-11.2-27.4l0.7,1.2a33.2,33.2,0,0,1,8.1,19.3,49.2,49.2,0,0,1,.3,5.1,37.3,37.3,0,0,1-9,25q-10.8,12.6-32.9,18.7a222.3,222.3,0,0,0,27.8,44.9,192.2,192.2,0,0,0,38.6,37.1q-6.6.9-24.7,8.4T1903.5,270ZM1655.3,95.2L1637,138.6q0-.3-4.2-3.9t-8.8-6l-1.8,4.9q2.1,0.6,7.3,3.9c3.2,2.4,5.3,4.4,6.3,6l-2.7,5.1q-4.6-4.2-15.4-10.5l-9.9,20.8h1.8a25,25,0,0,1,8.5,1.8,22.3,22.3,0,0,1,8.5,6.3l-5.4,14.8q-16.5,46.4-44,63h61.8q-16.3-6-17.2-16.5,0.3-2.1,3-12.9l12.4-40.1,3.6,3.6-9.9,34.6-0.6,4.2-1.2,4.9a20.8,20.8,0,0,0,3.6,11.1,37.4,37.4,0,0,0,9,10q6,4.8,9,6.9H1580l1.8,3.6h75.9a43.5,43.5,0,0,0-6.9-7.2,81.9,81.9,0,0,1-9.3-8.5,32.8,32.8,0,0,1-6-7.5q-1.8-3-2.4-9l0.9-4.6v-3.3l9.6-32.2q14.8,16.3,21.7,28.3,6.3-8.2,11.2-13.5a86,86,0,0,1,8.7-8.8l6.7-5.4,1.8,5.1q-16.6,16.6-22.9,25.3l2.7,1.8q17.1-19.6,22-23.5l12.9,37.7-16.5,16h63.5l-17.8-13.5-23.5-65.4a41.6,41.6,0,0,1,16.6-3.6,39.8,39.8,0,0,1,9.3,1.2,85.2,85.2,0,0,1-11.8-32.8,36,36,0,0,1-12.4,11.1l-19.6-46.4,10.8-17.1h-3.6l-11.1,17.1,19.9,49.4-4.5,3.3-22.7-52.7,12.4-17.1h-53.9Zm11.2,18.7-17.2,43.7a105.9,105.9,0,0,1,11.8,12.7l8.4,11.5-3.6,3.9a164,164,0,0,0-13.5-17.7q-8.2-9.7-8.8-9.7l20.5-50.6Zm1.8,4.9,17.5,48.2a180.8,180.8,0,0,1-14.2,12.4,107.2,107.2,0,0,0-9-12.4l-9-10.5Zm78.6,50a85.2,85.2,0,0,0-12.4-.6,111.4,111.4,0,0,0-13.2.6l22.3,59.9,25.3,21.7h-75.3l2.4,3.6h81.1l-30.2-27.1-21.1-55.1h11.8q11.2,0,14.8.6-3.3-6.6-5.7-12.1a112.1,112.1,0,0,1-5.1-11.1q-2.4-5.7-3.9-10.6l-3.6-3q1.2,12.7,12.9,33.2M1419.8,254h75.9l-22.3-25.9V176.9l64.1-95.8q6.7-9.6,15.7-20.8t14.2-15.1l-1.2-3.6q-16.6,13.6-31.6,36.5l-64.2,97.6v54.2l18.7,20.5h-72.3ZM1379.4,86.3a71,71,0,0,1,10.9,12.3l49.9,76v55.4l-17.4,15.4h56.9l-15.4-15.4v-56l53-81.6q23.5-37.3,44.3-57.2l-0.6-.9a97.8,97.8,0,0,1-24.1,11.8q-12.4,3.9-39.4,11.1,11.7,6.6,11.7,18.7,0,6.9-5.4,16l-37.1,58.2-34.6-53.9L1442.6,85l-3-2.1-12.9,13,37.7,57.5-3.9,6-41.3-63.5,16.6-17.8h-66l9.6,8.2m-173.3,8.4v66.9q-2.9.6-17.4,0.6l-6.6,15.4q4.5-1.2,12.7-2.7a77,77,0,0,1,9.9-1h1.5v6a49.8,49.8,0,0,0-18,5.7l2.1,2.4q9.1-3.9,16-3.9v45.7L1189,244.7h57.2l-16-14.8V171.2q22-2.1,30.7-4.9l3,6a50.1,50.1,0,0,1-14.2,3.3l-13.5,1.2v53l18.7,20.5H1195l3,3.6h63.5l-22.3-25.9V179.9q16.5,0,25.6-4.8,3.9,8.8,9.9,27.4t10.9,37.3q4.5,19,4.5,27.1,4.6-3.6,23-11.8t27.7-9.9q-13.8-9.3-34.4-34.3t-29.5-48.8q42.2-12.9,42.2-42.2,0-25.3-21-38.2t-48.8-12.9q-34.6,0-53.6,16.3Zm33.2,1.8,9.3-.6h10.5q15.9,0,26.5,6.9-9.6-9.9-30.1-9.9h-10.2l-9,.6v66a42.2,42.2,0,0,1-6,.3V87.4q7.9-3.9,20.2-3.9,18,0,29.8,9.1t11.8,26.8q0,33.2-52.7,40.1v-63Zm63.2,175.3a135.4,135.4,0,0,1,26.6-13.6q15.4-5.7,31.4-10.5a181.6,181.6,0,0,1-39.5-34.9,184.9,184.9,0,0,1-29.5-45.2q17.8-5.4,28.3-17.1a39.4,39.4,0,0,0,10.6-27.1q0-16.8-11.2-27.4l0.7,1.2a33.2,33.2,0,0,1,8.1,19.3,49.5,49.5,0,0,1,.3,5.1,37.3,37.3,0,0,1-9,25q-10.8,12.6-32.9,18.7A222.4,222.4,0,0,0,1314,210a192.4,192.4,0,0,0,38.6,37.1q-6.6.9-24.7,8.4T1299.2,270ZM1051,95.2l-18.4,43.4q0-.3-4.2-3.9t-8.7-6l-1.8,4.9q2.1,0.6,7.3,3.9t6.3,6l-2.7,5.1q-4.6-4.2-15.4-10.5l-9.9,20.8h1.8a24.9,24.9,0,0,1,8.5,1.8,22.4,22.4,0,0,1,8.5,6.3l-5.4,14.8q-16.6,46.4-44,63h61.8q-16.3-6-17.2-16.5,0.3-2.1,3-12.9l12.4-40.1,3.6,3.6-9.9,34.6-0.6,4.2-1.2,4.9a20.8,20.8,0,0,0,3.6,11.1,37.5,37.5,0,0,0,9,10q6,4.8,9,6.9H975.7l1.8,3.6h75.9a43.7,43.7,0,0,0-6.9-7.2,80.8,80.8,0,0,1-9.3-8.5,32.9,32.9,0,0,1-6-7.5q-1.8-3-2.4-9l0.9-4.6v-3.3l9.6-32.2Q1054,198,1060.9,210q6.3-8.2,11.2-13.5a86.6,86.6,0,0,1,8.7-8.8l6.7-5.4,1.8,5.1q-16.5,16.6-22.9,25.3l2.7,1.8q17.1-19.6,22-23.5l12.9,37.7-16.5,16H1151l-17.8-13.5-23.5-65.4a41.7,41.7,0,0,1,16.5-3.6,39.7,39.7,0,0,1,9.3,1.2,85.2,85.2,0,0,1-11.8-32.8,36,36,0,0,1-12.4,11.1L1092,95.2l10.8-17.1h-3.6l-11.1,17.1,19.9,49.4-4.5,3.3-22.7-52.7,12.4-17.1h-53.9Zm11.2,18.7L1045,157.6a105.9,105.9,0,0,1,11.8,12.7l8.4,11.5-3.6,3.9a164.6,164.6,0,0,0-13.5-17.7q-8.2-9.7-8.8-9.7l20.5-50.6Zm1.8,4.9,17.5,48.2a182.6,182.6,0,0,1-14.2,12.4,108,108,0,0,0-9-12.4l-9-10.5Zm78.6,50a85.2,85.2,0,0,0-12.4-.6,111.4,111.4,0,0,0-13.2.6l22.3,59.9,25.3,21.7h-75.3l2.4,3.6h81l-30.1-27.1-21.1-55.1h11.8q11.2,0,14.8.6-3.3-6.6-5.7-12.1a113,113,0,0,1-5.2-11.1q-2.3-5.7-3.9-10.6l-3.6-3q1.2,12.7,12.9,33.2M937.4,96.5V229.9l18.7,20.5H895.5l3,3.6h63.6l-21.7-25.9V96.5l11.8-12.9-1.8-1.8Zm-72.9,97.6-50-98.2,16.2-14.8-1.5-2.4-19.5,16,53,104.6-3,9L800.9,93.5l19.3-15.4H754l17.4,16.5V210q0,10.5-6.9,20.8t-16.6,13.8h56.6q-20.8-7.5-20.8-34.6V105.8l6,14.1V210q0,9.9,1.8,15.1a25.9,25.9,0,0,0,6,9.9q3.9,4.8,14.4,15.4H747.9l2.4,3.6H819L807.9,242a74.2,74.2,0,0,1-7.8-9.3,34.1,34.1,0,0,1-5.7-10.5,35.8,35.8,0,0,1-1.8-12.1V125.7l59.6,119h10.6l44-125.9v18.1L866.9,250.4H853.9l1.5,3.6h14.2l37-105.5v81.3l-16.9,14.8h57l-16-14.8V95.2l16-17.1h-57l12.4,16.5ZM718.9,96.5V229.9l19,20.5H677.7l3,3.6h63.5L722,228.1V96.5l12.4-12.9-2.4-1.8Zm-29.8-1.2V229.9l-17.8,15.4h56.9l-15-15.4V95.2l15-17.1H671.4Zm-182-.6v66.9q-2.9.6-17.4,0.6l-6.6,15.4q4.5-1.2,12.7-2.7a77.1,77.1,0,0,1,9.9-1h1.5v6a49.9,49.9,0,0,0-18,5.7l2.1,2.4q9-3.9,16-3.9v45.7L490,244.7h57.2l-16-14.8V171.2q22-2.1,30.7-4.9l3,6a50.1,50.1,0,0,1-14.2,3.3l-13.5,1.2v53L556,250.4H496l3,3.6h63.5l-22.3-25.9V179.9q16.5,0,25.6-4.8,3.9,8.8,9.9,27.4t10.9,37.3q4.5,19,4.5,27.1,4.6-3.6,23-11.8t27.7-9.9q-13.8-9.3-34.4-34.3t-29.5-48.8q42.2-12.9,42.2-42.2,0-25.3-21-38.2T550.2,68.8q-34.6,0-53.6,16.3Zm33.2,1.8,9.3-.6h10.5q15.9,0,26.5,6.9-9.6-9.9-30.1-9.9H546.3l-9,.6v66a42.2,42.2,0,0,1-6,.3V87.4q7.9-3.9,20.2-3.9,18,0,29.7,9.1T593,119.4q0,33.2-52.7,40.1v-63Zm63.2,175.3a135.4,135.4,0,0,1,26.6-13.6q15.4-5.7,31.4-10.5a181.7,181.7,0,0,1-39.5-34.9,185,185,0,0,1-29.5-45.2q17.8-5.4,28.3-17.1a39.4,39.4,0,0,0,10.6-27.1q0-16.8-11.2-27.4l0.7,1.2a33.2,33.2,0,0,1,8.1,19.3,48.2,48.2,0,0,1,.3,5.1,37.3,37.3,0,0,1-9,25q-10.8,12.6-32.9,18.7A222.4,222.4,0,0,0,615,210a192.3,192.3,0,0,0,38.6,37.1q-6.6.9-24.7,8.4T600.2,270ZM409.8,175.7h4.3q33.7,0,49.4-18.1,9.3-10.2,9.3-29.5,0-14.2-4.5-23.5a38.2,38.2,0,0,0-7.8-10.2q-4.3-3.9-5.2-3.9l1.2,1.2a44.6,44.6,0,0,1,14.2,33.5q0,16.8-6.6,26.5t-21.4,16.3a85.1,85.1,0,0,1-29.2,5.4H380.6v56.6l18.7,20.5H339.4l3,3.6h63.5l-22.3-25.9V175.7h26.2ZM333.3,78.1l17.1,17.1v61.2q-11.1,0-16.5,3.6T327,177.5q6.9-8.2,19-8.2h4.5v3.9h-1.8q-8.5,0-16.3,6l1.5,1.8q7.3-4.9,14.2-4.9h2.4v53.6L333,245.3H390l-15.4-15.4V168.2h38.9a67,67,0,0,0,27.3-5.4,39.9,39.9,0,0,0,19-16.8,39.1,39.1,0,0,0,5.1-20.2q0-3-.3-6.3-2.4-20.4-20.8-31a81.6,81.6,0,0,0-40.4-10.2H333.3Zm50.3,20.5h20.5q12.3,0,15,1a99.7,99.7,0,0,1,10.9,5.7v0.6q-5.1-5.8-9.3-7.6t-16.5-1.8H380.6v59.9h-6V91h22.9q19,0.6,29.5,7.2t10.5,25q0,18.7-10.5,26t-32.2,7.2H383.6V98.6Z" transform="translate(-5.6 -12.4)"/>
        <path d="M12.8,24.4c-3,6.1-1.2,22.4-1.2,32.3V257.3c0,11.4-1.1,27.1,2.3,31.1S28.6,292,41.6,292H230c10.8,0,24.2,1,28.2-3.5s2.3-21.4,2.3-31.1V54.3c0-10.3,1.2-27.5-2.3-31.7s-15-4.1-25.8-4.1H52.8c-9.9,0-23.8-.8-31.1.6-2.7.5-6.7,1-8.8,5.3m8.2-10.6c17.4-2.9,42.8-.6,62.2-0.6H236.4c10.7,0,20.5.2,25.2,5.3,8,8.6,4.7,45.1,4.7,65.1V256.8c0,18,1.4,31.5-7.6,37.6-5.4,3.6-18.4,2.9-29.9,2.9H34c-5.9,0-11.6.7-15.8-.6a21.8,21.8,0,0,1-9.4-6.5c-3.6-5.1-2.9-19.1-2.9-31.1V54.9C5.8,34.3,3,16.8,21.1,13.8" transform="translate(-5.6 -12.4)"/>
        <path d="M218.8,206.3a64.6,64.6,0,0,0-18.8-.6c2.5,11.3,9.2,24.2,12.9,34.6,1.5,4.2,1.9,8.9,3.5,12.3s7.1,7.1,10.6,10,6.4,4.1,7,7.6H207.7c-8.8,0-18-1-25.2,1.2,3.2,3.4,8.3,2,12.9,1.8,14.1-.6,31.9.5,46.4,0-4.4-8.3-15.3-11.2-21.1-20-4.2-6.2-5.9-15.6-8.8-23.5s-6.2-14.5-8.2-21.7a105.4,105.4,0,0,1,20,1.8c-3-9.1-8.3-15.9-10.6-25.8-1.8.4-1.1-1.6-2.9-1.2,1.4,9.3,6.6,15,8.8,23.5m-81.6-71.6c1.2,3.6,7.5,7.3,9.4,12.3-5.2,11.6-8.4,25.2-14.1,36.4-3.6-2-5.9-8.1-11.2-6.5,2,4.9,7.6,6.1,10,10.6-0.8.9-.5,3-1.8,3.5-4.9-2.4-6.6-7.9-12.3-9.4-1.2,7-5.5,11-7.6,17,4.5,0.7,13.6.8,14.7,6.5,0.4,2-1.9,6.3-2.9,9.4-7.5,21.4-18.8,42.5-35.8,50.5,16.9-.5,32.4-0.5,49.3,0-3.8-6.5-9.9-9.5-11.2-17.6-2.2-14,6.8-26.7,9.4-37.6,7.2,4.1,2.1,9.5-.6,17a59.7,59.7,0,0,0-3.5,13.5c-1.6,16.6,6.9,20.2,11.1,29.9H90.3c1.3,4.8,6.5,3.2,11.1,2.9,13.3-.7,33.1,1,45.2-0.6-4.4-6.8-13.3-13.5-14.7-24.1-1.6-12.3,3.7-22.2,8.2-31.1,6.7,6.2,9.7,16.1,17,21.7,4.5-8.8,11.7-18,19.4-21.7,2.6,2.7-.2,5-1.8,7-4.9,6.5-12.6,11.6-14.7,20,4.7-1.6,6.1-7.1,8.8-10.6s6.2-7.3,10.6-9.4c3,10.1,7.3,18.9,10.6,28.8-4.5,3.7-9.5,6.9-12.9,11.7,17.4,0.1,32.5-.9,49.3,0-2.1-5.1-9.1-6.3-12.9-10.6-5.3-5.9-7-17.3-10.6-27s-6.8-17.3-8.8-24.7c4.1-2.7,11.2-2.5,17.6-2.9a84.6,84.6,0,0,1-7.6-20c-3.6,1.5-5,5.2-8.8,6.5-4.8-12.4-9.4-25-14.1-37.6,2.4-4.3,9-7.3,8.8-12.3-3.4-.2-4.5,3.1-6.5,5.3s-5,4.3-5.3,7,1.9,7.1,3.5,11.1c3.1,7.9,5.6,13.8,8.2,21.1,1.1,3,4.9,8.4-1.2,9.4-5.3-14.8-10.9-29.4-16.4-44,1.2-1.7,3.4-3.7,5.3-5.9s5.2-5.3,3.5-5.9c-15.4,0-29-1-44,0M169,78.9c4.3,45.8-39.2,53.1-84.5,49.3v55.2a71.8,71.8,0,0,0,7.6,8.8c2.6,2.7,6.2,5.4,6.5,8.8H43.4c1.5,5,8.2,3.5,12.9,3.5h49.9c-2.2-8.7-15.6-14.2-18.2-23.5-1-3.5-.2-6.9,0-11.1,0.5-11.8-.9-26,0.6-38.2,28.3,0.4,57.5-.1,72.8-15.8,11.3-11.6,15.2-38.6,4.7-55.2-1.6-2.6-7.8-8.8-10-8.2,6.6,7.2,11.8,14.9,12.9,26.4m-24.6,34.6c16.9-11,23.5-39.2,9.4-56.9C134.6,32.7,79.7,37.8,39.3,39c3.5,5.6,12.3,7.5,14.1,15.3s0,18.9,0,28.8v29.3c-4.7.2-9.2,0.4-12.9,1.8-5.6,2.1-11.1,6.8-12.3,12.9,4,0.2,6.7-2.8,11.7-4.1s14.9-4.2,13.5,4.7c-7.1,1.4-17,.7-19.4,6.5,5.6,0.4,11.5-3.7,19.4-2.9v48.1c-3.8,6.6-12,8.8-15.8,15.3H92.1c-3-6.7-11.1-6.5-13.5-14.1-1.2-3.7-.2-8.4,0-13.5,0.6-13.9-.5-31.2,0-44.6,25.3-.4,50.3,1.2,65.7-8.8M254.1,26.1c2.1,10.3,1.2,21,1.2,31.7v196c0,10.5.9,21-1.2,31.1-8.8,3.1-18.7,1.8-28.2,1.8H46.3c-9.4,0-19.3,1.4-28.2-1.8C16,275.5,17,263.6,17,252.7V53.7c0-9.9-1.8-27.5,3.5-29.3s21.2-.6,31.7-0.6H227.6c8.8,0,18.4-1.6,26.4,2.3" transform="translate(-5.6 -12.4)"/>
        <path d="M85,57.8v54H78c1.6-19.3-1.6-42,1.2-61,19.3-1.8,38.9-.9,48.7,10s10.2,30.3.6,40.5S105.7,111.4,88,111.8c-0.6-17.4-.6-33.6,0-51.1,15.5-1.6,32.9-.1,41.1,7.6-6.2-11.9-26.9-11.5-44-10.6" transform="translate(-5.6 -12.4)"/>
        <path fill="#fff" class="cls-1" d="M156,52.5c2.2-.6,8.3,5.6,10,8.2,10.5,16.6,6.6,43.6-4.7,55.2-15.3,15.7-44.4,16.3-72.8,15.8-1.4,12.1-.1,26.4-0.6,38.2-0.2,4.2-1,7.6,0,11.1,2.6,9.2,16,14.8,18.2,23.5H56.3c-4.7,0-11.4,1.5-12.9-3.5H98.5c-0.2-3.4-3.9-6.1-6.5-8.8a72,72,0,0,1-7.6-8.8V128.2c45.4,3.8,88.8-3.5,84.5-49.3-1.1-11.5-6.3-19.2-12.9-26.4" transform="translate(-5.6 -12.4)"/>
        <path fill="#fff" class="cls-1" d="M146.7,195.1c4.4,7.4,10,13.5,15.3,20,1.8-5.4,8.8-6.1,9.4-11.7,0.3-3.2-3.9-10.1-6.5-17s-4.6-16-7.6-18.8a293,293,0,0,1-10.6,27.6m-9.4,2.3,9.4,11.7c3.2,4,6,8.5,10,11.7a8.3,8.3,0,0,1,2.9-2.9c-3.2-9.3-11.5-13.5-15.8-21.7,1.4-4.8,4.2-10.4,6.5-16.4,2.8-7.6,9.1-18.7,2.3-24.1-4.5,14.5-10.4,27.5-15.3,41.7m44-62.8c1.7,0.5-2.1,4.2-3.5,5.9s-4.1,4.1-5.3,5.9c5.5,14.6,11.1,29.2,16.4,44,6.1-1,2.3-6.4,1.2-9.4-2.6-7.3-5.1-13.2-8.2-21.1-1.6-4-3.8-8.8-3.5-11.1s3.2-4.7,5.3-7,3-5.5,6.5-5.3c0.2,5-6.4,8-8.8,12.3,4.7,12.5,9.2,25.2,14.1,37.6,3.8-1.2,5.2-5,8.8-6.5a84.7,84.7,0,0,0,7.6,20c-6.4.4-13.5,0.2-17.6,2.9,2,7.4,5.6,15.9,8.8,24.6s5.2,21.1,10.6,27c3.8,4.2,10.9,5.5,12.9,10.6-16.8-.9-31.9.1-49.3,0,3.4-4.8,8.4-8,12.9-11.7-3.3-9.8-7.5-18.7-10.6-28.8-4.3,2.1-7.6,5.7-10.6,9.4s-4.1,9-8.8,10.6c2-8.4,9.7-13.4,14.7-20,1.5-2,4.4-4.3,1.8-7-7.7,3.7-14.9,12.9-19.4,21.7-7.3-5.6-10.3-15.5-17-21.7-4.6,8.9-9.8,18.8-8.2,31.1,1.4,10.6,10.3,17.3,14.7,24.1-12.1,1.6-31.9-.1-45.2.6-4.6.2-9.8,1.9-11.1-2.9h49.9c-4.2-9.7-12.8-13.4-11.1-29.9a59.6,59.6,0,0,1,3.5-13.5c2.7-7.5,7.8-12.9.6-17-2.5,10.9-11.5,23.6-9.4,37.6,1.3,8.1,7.3,11.1,11.2,17.6-16.9-.5-32.4-0.5-49.3,0,17-7.9,28.3-29.1,35.8-50.5,1.1-3.1,3.3-7.4,2.9-9.4-1.1-5.7-10.2-5.7-14.7-6.5,2.2-6,6.4-10,7.6-17,5.7,1.5,7.5,7,12.3,9.4,1.3-.5.9-2.6,1.8-3.5-2.3-4.5-8-5.7-10-10.6,5.2-1.6,7.6,4.5,11.2,6.5,5.7-11.2,8.9-24.8,14.1-36.4-1.9-5-8.1-8.7-9.4-12.3,15-1,28.6,0,44,0" transform="translate(-5.6 -12.4)"/>
        <path d="M152.5,155.8c6.8,5.3.5,16.5-2.4,24.1-2.3,6-5,11.6-6.5,16.4,4.3,8.2,12.7,12.4,15.8,21.7a8.3,8.3,0,0,0-2.9,2.9c-3.9-3.2-6.8-7.8-10-11.7l-9.4-11.7c4.8-14.1,10.7-27.2,15.3-41.7" transform="translate(-5.6 -12.4)"/>
        <path d="M157.2,167.6c3,2.8,4.6,10.6,7.6,18.8s6.8,13.9,6.5,17c-0.6,5.7-7.5,6.3-9.4,11.7-5.3-6.5-10.9-12.6-15.3-20a292.4,292.4,0,0,0,10.6-27.6" transform="translate(-5.6 -12.4)"/>
        <path fill="#fff" class="cls-1" d="M210,182.8c1.8-.4,1.1,1.6,2.9,1.2,2.2,9.9,7.5,16.7,10.6,25.8a105.2,105.2,0,0,0-20-1.8c2.1,7.3,5.5,14.4,8.2,21.7s4.6,17.3,8.8,23.5c5.9,8.7,16.7,11.7,21.1,20-14.5.5-32.2-.6-46.4,0-4.6.2-9.7,1.7-12.9-1.8,7.3-2.1,16.4-1.2,25.2-1.2h26.4c-0.7-3.6-4.4-5.5-7-7.6s-8.4-5.6-10.6-10-2-8.1-3.5-12.3c-3.8-10.4-10.4-23.4-12.9-34.6a64.5,64.5,0,0,1,18.8.6c-2.2-8.5-7.4-14.2-8.8-23.5" transform="translate(-5.6 -12.4)"/>
        <path fill="#fff" class="cls-1" d="M129.1,68.4c-8.1-7.7-25.5-9.3-41.1-7.6-0.6,17.4-.6,33.6,0,51.1,17.7-.4,32.2-1.7,40.5-10.6s8-30.9-.6-40.5S98.5,49,79.2,50.8c-2.8,19.1.4,41.7-1.2,61h7v-54c17.1-.9,37.8-1.3,44,10.6m-50.5,54c-0.5,13.4.6,30.7,0,44.6-0.2,5.1-1.2,9.8,0,13.5,2.4,7.6,10.5,7.4,13.5,14.1H37.5c3.9-6.5,12.1-8.7,15.8-15.3V131.2c-7.9-.8-13.8,3.4-19.4,2.9,2.4-5.8,12.3-5,19.4-6.5,1.4-8.9-8.7-5.9-13.5-4.7s-7.7,4.3-11.7,4.1c1.2-6.2,6.8-10.8,12.3-12.9,3.7-1.4,8.2-1.5,12.9-1.8V83.1c0-9.8,1.7-21,0-28.8S42.8,44.6,39.3,39c40.4-1.3,95.4-6.3,114.4,17.6,14.1,17.7,7.5,45.9-9.4,56.9s-40.5,8.4-65.7,8.8" transform="translate(-5.6 -12.4)"/>
      </g>
      <path d="M277.3,280.3a1,1,0,0,1-1.1,1h-1.1v-2.1h1.1a1.1,1.1,0,0,1,1.1,1.1m1,4.2-1.4-2.6a1.7,1.7,0,0,0,1.3-1.6,1.8,1.8,0,0,0-1.9-1.8h-2v6h0.8v-2.4H276l1.4,2.4h1Zm2.3-3a4.6,4.6,0,1,1-4.6-4.7,4.7,4.7,0,0,1,4.6,4.7m0.9,0A5.5,5.5,0,1,0,276,287a5.5,5.5,0,0,0,5.5-5.5" transform="translate(-5.6 -12.4)"/>
      <path d="M2344.2,88.4a1,1,0,0,1-1.1,1H2342V87.3h1.1a1.1,1.1,0,0,1,1.1,1.1m1,4.2-1.4-2.6a1.7,1.7,0,0,0,1.3-1.6,1.8,1.8,0,0,0-1.9-1.8h-2v6h0.8V90.1h0.9l1.4,2.4h1Zm2.3-3a4.6,4.6,0,1,1-4.6-4.7,4.7,4.7,0,0,1,4.6,4.7m0.9,0a5.5,5.5,0,1,0-5.5,5.5,5.5,5.5,0,0,0,5.5-5.5" transform="translate(-5.6 -12.4)"/>

    </symbol>


    <symbol id="beren-logo" viewBox="0 0 783.6 132.4">
        <defs>
          <style>
            .goldb {
              fill: #ccc;
            }
          </style>
        </defs>
        <path d="M28.4,14.4V135.1H22.6V66.7H10.7v68.4H4.9V14.4C4.9,6.3,9.1,2.7,16.3,2.7S28.4,6.3,28.4,14.4ZM22.6,63.9V15c0-7.5-1.5-10.6-6.3-10.6S10.7,7.5,10.7,15v49H22.6Z" transform="translate(-4.9 -2.7)"/>
        <path d="M62.1,76.4v46.2c0,8-5.3,12.3-11.9,12.3H38.5V3.4H50.1c6.7,0,11.9,4.3,11.9,12.3V53.9c0,10.7-8.7,11.3-8.7,11.3S62.1,65.6,62.1,76.4Zm-5.8,46.4V76.9c0-9.6-3.6-10.7-8.9-10.7H44.3v67.1h3.1C52.7,133.2,56.3,132.4,56.3,122.8Zm0-69.4V15.5c0-9.6-3.6-10.4-8.9-10.4H44.3v59h3.1C52.7,64.1,56.3,62.9,56.3,53.4Z" transform="translate(-4.9 -2.7)"/>
        <path  class="goldb" d="M53.4,65.1h0.2l1.1-.2,0.9-.3a14.5,14.5,0,0,0,2.1-1l1.2-.8a7.7,7.7,0,0,0,1.5-2.1c-1.2,2.4-17.4,3.1-32,3.2H4.9v2Z" transform="translate(-4.9 -2.7)"/>
        <path  class="goldb" d="M4.9,65v1.7H28.4c14.6-.1,30.8.4,32,2.8a7.6,7.6,0,0,0-1.5-2.1l-1.2-.8a14.4,14.4,0,0,0-2.1-1l-0.9-.3-1.1-.2H4.9Z" transform="translate(-4.9 -2.7)"/>
        <path d="M692.2,70.3V86.7h29.5v5.7H685.6V43.3h36v5.8H692.2V63.9h28.3v6.3H692.2Z" transform="translate(-4.9 -2.7)"/>
        <path d="M570.7,70.2V86.1h29.5v6.3H563.8V43.3h36.3v6.3H570.7V64h27.4v6.2H570.7Z" transform="translate(-4.9 -2.7)"/>
        <path d="M788.4,43.3V92.4H782l-29-38.1V92.4H746V43.3h6.6l28.9,38.2V43.3h6.9Z" transform="translate(-4.9 -2.7)"/>
        <path d="M257.5,43.5v5.7H239.2V92.5h-7.3V49.2H213.6V43.5h44Z" transform="translate(-4.9 -2.7)"/>
        <path d="M274.6,43.3h7.4V63.9h28V43.3h7.4V92.5H310V69.8h-28V92.5h-7.4V43.3Z" transform="translate(-4.9 -2.7)"/>
        <path d="M348.8,43.3V73.6a16.4,16.4,0,0,0,2.2,8.9q3.3,5.3,11.2,5.3,9.4,0,12.8-5.8a16.8,16.8,0,0,0,1.8-8.5V43.3h7.4V70.9q0,9.1-2.7,14-5,8.9-18.7,8.9t-18.7-8.9q-2.7-4.9-2.7-14V43.3h7.4Z" transform="translate(-4.9 -2.7)"/>
        <path d="M161.7,92.5V43.2h16.6c11.2,0,19.8,4,19.8,13.2s-8.2,13-11.7,14.4h0l15.8,21.4h-8.9L179.7,72.6h-11V92.5h-7Zm15.6-24.7c6.6,0,13.6-2,13.6-10.7s-7.3-8.7-11.5-8.7H168.7V67.8h8.7Z" transform="translate(-4.9 -2.7)"/>
        <path d="M408.3,92.5V43.2h16.6c11.2,0,19.8,4,19.8,13.2s-8.2,13-11.8,14.4h0l15.8,21.4h-8.9L426.3,72.6h-11V92.5h-7ZM424,67.8c6.6,0,13.6-2,13.6-10.7s-7.3-8.7-11.5-8.7H415.3V67.8H424Z" transform="translate(-4.9 -2.7)"/>
        <path d="M624.8,92.5V43.2h16.6c11.2,0,19.8,4,19.8,13.2s-8.2,13-11.7,14.4h0l15.8,21.4h-8.9L642.8,72.6h-11V92.5h-7Zm15.6-24.7c6.6,0,13.6-2,13.6-10.7s-7.3-8.7-11.5-8.7H631.8V67.8h8.7Z" transform="translate(-4.9 -2.7)"/>
        <path d="M500.2,43.3h23.1c12,0,16.4,6.7,16.4,12.6a10.8,10.8,0,0,1-7.8,10.6,0.2,0.2,0,0,0,0,.1c2,0.6,9.3,2.1,9.3,11.6,0,6.3-3,14.1-16.4,14.2H500.2V43.3Zm7.2,5.8V63.9h13.4c9.3,0,11.6-2.5,11.6-7.7,0-7-7-7.2-9.8-7.2H507.4Zm0,20.4V86.6H524c5.9-.1,10.2-1.9,10.2-8.4s-3.8-8.7-10.1-8.7H507.4Z" transform="translate(-4.9 -2.7)"/>
        <path d="M109.4,72.3l8.4-22h1.4l8.1,22H109.4ZM94.1,92.5h7.2l5.9-14.7h22.1L135,92.5h7.6L123.5,43.2h-9.4Z" transform="translate(-4.9 -2.7)"/>


    </symbol>


    <symbol id="hale-logo" viewBox="0 0 204.1 112.2">
        <defs>
          <style>
            .cls-2 {
              fill: #fff;
            }
          </style>
        </defs>
        <path  d="M393.9,144.2v24.5c5.7-.6,12.7,2.3,14.4,7.4,2.5,7.5-4.3,14.5-10.5,18.7-1.2,1.1-2.8,1.2-3.9,2.4v6a17.5,17.5,0,0,0,6.7-4.5l7.2,7.7c-4.4,4-8.4,8.1-14.7,11v38.9H243.3s0.2-22.5,0-22.6c-7.6,3.9-16.1,8.6-25.4,5.3-6.4-1.8-12-7.8-13-14.4-0.9-12.6,8.4-23,18.7-28.8,6.3-3.9,13.7-6.7,20-9.4V144.1H393.9Z" transform="translate(-204.9 -144.1)"/>
        <path fill="#fff" d="M221,231.1c-4.7-3-.6-12.4,2.4-17.3a60.5,60.5,0,0,1,29.2-19.6C249.6,213.4,231.8,237.9,221,231.1Zm110.4-50.4c-0.8.6-2.4,0.5-3.4,0.5-4,9.5-10.7,27.5-16.7,24.5s4.6-24.4,12.9-26.9C325.9,178.3,329.6,178.6,331.4,180.7ZM375.9,157c4.5,1.5-9.9,21.9-17.7,30.9C361.6,177.2,372.4,155.9,375.9,157Zm21.9,21.5c3.2,3.7-7,12.7-14.1,14.7C383.9,186.7,395.1,175.3,397.8,178.5Zm-30-24.7c-14.8,12.3-22.4,28.4-24.9,46.1-3.4,2.1-9.9,6.4-11.1,3.9s5.3-14.9,7.2-22.6l-5.2-.5c1.2-1.4,4-4.1,3.8-4.3-4.2-4.2-14.8-5-20.6-1.9-5.1,5.8-13.3,5.4-20.2,5.3l10.6-27.9L293,153.4l-11.6,29.2a27.3,27.3,0,0,1-10.5,1.5c3-9.7,7.4-19.4,9.6-28.8L264.9,158,255,188.4c-16.9,4.3-37.5,9.3-44.6,28.3-1,5.2-.6,11,2.9,14.9s7,4.7,11.5,4.8c24.2-1.1,37.6-27.4,44.6-46.6a27.4,27.4,0,0,1,10.1-1.4c-3.1,9.8-9.2,23.6-7.7,30.2s16.7,2.7,19.7-6.2c-2.1,1.3-5.5,3.5-6.2,1s6.1-18.8,10.1-27.9c3.2-.3,6.2-0.8,9.6-0.9a45.5,45.5,0,0,0-8.2,15.3c-1,4.8-2.8,12.8,3.4,15.4s13-1.9,17.7-7.2a8.7,8.7,0,0,0,3.4,4.3c7.2,4,14.5-3,21.1-6.7a13,13,0,0,0,4.3,6.7c8.8,2.7,15.3-4.2,21.6-8.9,0.2,8,5.4,10.2,8.2,11.2,10.4,1.8,20.1-2.1,26.9-9.6,0.1,0-2.4-2.1-2.6-2.6-11.1,8.5-17.3,6.1-19,2.1-0.4-2.2-1.6-6,.9-7.7,8.8-1.3,18.5-5.6,22.1-14.4a7.5,7.5,0,0,0-2.4-8.6c-2.6-2.3-7.9-2.1-13.4.3-9.9,4.3-17.1,13.4-21.2,24.8-2.7,2.6-5.7,4.7-9.6,4.8s-2.7-5.6-2.4-8.7c11.9-11.8,26-23.6,26-40.8C380.2,147.1,371.5,151.6,367.8,153.8Z" transform="translate(-204.9 -144.1)"/>
        <path class="cls-2" d="M268.7,239.8h8.5v10.9h-2.8l-0.4-2.5a7.5,7.5,0,0,1-6.3,3.1c-4.9,0-9.3-3.5-9.3-10.6,0-5.5,3.1-10.7,9.9-10.7s8.7,4,8.9,6.8h-4.2a4.5,4.5,0,0,0-4.4-3.3c-3,0-5.8,2.1-5.8,7.3s3,7,5.9,7c0.9,0,4-.4,4.9-4.5h-4.7v-3.4Z" transform="translate(-204.9 -144.1)"/>
        <path class="cls-2" d="M285.3,239.4V234h5.3c2.5,0,3,1.6,3,2.7s-1.1,2.8-3.3,2.8h-5Zm-4.2,11.3h4.2v-7.9h4.4c3.1,0,3.3,1.1,3.3,3.8a13.6,13.6,0,0,0,.5,4.1h4.7v-0.5c-0.9-.3-0.9-1.1-0.9-4s-0.9-4.4-2.6-5.1a4.8,4.8,0,0,0,3.1-4.8c0-1.8-1-5.7-6.4-5.7H281.2v20.3Z" transform="translate(-204.9 -144.1)"/>
        <path class="cls-2" d="M304.9,240.6c0-5.7,3.2-7.1,5.5-7.1s5.5,1.4,5.5,7.1-3.2,7.1-5.5,7.1S304.9,246.3,304.9,240.6Zm-4.2,0c0,9.5,7,10.7,9.7,10.7s9.7-1.2,9.7-10.7-7-10.7-9.7-10.7S300.7,231.1,300.7,240.6Z" transform="translate(-204.9 -144.1)"/>
        <path class="cls-2" d="M334.1,230.5h4.4l-6.9,20.3h-4l-6.8-20.3h4.5l4.3,15.4h0.1Z" transform="translate(-204.9 -144.1)"/>
        <path class="cls-2" d="M356.1,234H345.4v4.3h9.9v3.6h-9.9v5.2h11.2v3.6H341.2V230.5h14.9V234Z" transform="translate(-204.9 -144.1)"/>
        <path class="cls-2" d="M363.1,244.5c0,1.1.6,3.3,4.3,3.3,2,0,4.2-.5,4.2-2.6s-1.5-2-3.7-2.5l-2.2-.5c-3.3-.8-6.4-1.5-6.4-6,0-2.3,1.2-6.2,7.8-6.2s7.9,4.1,7.9,6.5H371c-0.1-.9-0.5-3-4.2-3-1.6,0-3.5.6-3.5,2.4s1.3,1.9,2.1,2.1l5,1.2c2.8,0.7,5.3,1.8,5.3,5.4,0,6.1-6.2,6.6-8,6.6-7.4,0-8.7-4.3-8.7-6.8h4.1Z" transform="translate(-204.9 -144.1)"/>
        <path class="cls-2" d="M382.8,229.5v-1.7h1c0.6,0,1.3.1,1.3,0.8s-0.4.9-1.1,0.9h-1.3Zm0,1.2h0.7l1.6,2.9h1.7l-1.8-3a1.6,1.6,0,0,0,1.7-1.8c0-1.6-1.1-2.1-2.8-2.1h-2.6v6.9h1.5v-2.9Zm7.5-.5a6.5,6.5,0,1,0-6.5,6.4A6.2,6.2,0,0,0,390.3,230.1Zm-1.9,0a4.7,4.7,0,0,1-4.6,5h0A5,5,0,1,1,388.4,230.1Z" transform="translate(-204.9 -144.1)"/>
    </symbol>

    <symbol id="pear-logo" viewbox="0 0 400 98">
        <path d="M395.840132,20.8104513 C396.824082,19.1623753 397.788548,17.4770546 398.714046,15.8289786 L398.899145,15.8289786 L399.162181,18.5664608 C399.366765,20.5031829 399.727222,23.063753 400,24.7956295 C399.805158,24.7304513 399.561606,24.6838955 399.366765,24.6838955 C399.142697,24.6838955 398.938113,24.7304513 398.714046,24.7956295 C398.665335,23.631734 398.606883,22.2071259 398.382815,20.5031829 L398.061326,18.1847031 L398.0321,18.1847031 L397.077376,19.8141568 C396.122653,21.3970546 394.992572,23.5665558 394.524952,24.6466508 L394.339852,24.6466508 C393.696875,23.2127316 392.790862,21.7322565 391.982269,20.2424703 L390.900899,18.2778147 L390.842446,18.2778147 L390.57941,20.6894062 C390.384569,22.0488361 390.257922,23.408266 390.248179,24.7956295 C390.06308,24.7304513 389.87798,24.6838955 389.722107,24.6838955 C389.54675,24.6838955 389.36165,24.7304513 389.186293,24.7956295 C389.575976,23.0451306 389.87798,20.9687411 390.179985,18.9389074 L390.598894,15.8289786 L390.832704,15.8289786 C391.61207,17.4770546 392.488857,19.087886 393.472807,20.7638955 L394.661341,22.7378622 L394.710051,22.7378622 L395.840132,20.8104513 L395.840132,20.8104513 Z M384.792616,16.648361 C383.82815,16.648361 382.853942,16.6949169 381.889476,16.7507838 C381.957671,16.6297387 381.996639,16.4900713 381.996639,16.3504038 C381.996639,16.2200475 381.957671,16.0896912 381.889476,15.9686461 C383.048783,16.0245131 384.208091,16.0710689 385.37714,16.0710689 C386.555932,16.0710689 387.695755,16.0245131 388.874546,15.9686461 C388.806352,16.0896912 388.757641,16.2200475 388.757641,16.3504038 C388.757641,16.4900713 388.806352,16.6297387 388.874546,16.7507838 C387.890596,16.6949169 386.935873,16.648361 385.961665,16.648361 L385.961665,19.6931116 C385.961665,21.3784323 386.029859,23.0916865 386.068828,24.7956295 C385.84476,24.7304513 385.601208,24.6838955 385.37714,24.6838955 C385.153072,24.6838955 384.90952,24.7304513 384.675711,24.7956295 C384.724421,23.6410451 384.792616,22.1512589 384.792616,19.8607126 L384.792616,16.648361 L384.792616,16.648361 Z M17.4285784,22.6354394 C20.0784237,22.7657957 24.959205,23.5665558 25.0468838,31.7138242 L25.0566258,31.7138242 L25.0566258,64.3028979 C25.0663679,66.4630879 25.0371417,69.479905 24.0239655,71.7983848 C22.962079,74.0982423 21.2766994,75.7463183 17.1558002,75.8021853 C13.7363306,75.7928741 11.4372001,74.4334442 9.90769381,72.9157245 C8.38792956,71.4631829 7.74495239,69.5730166 7.79366278,69.5264608 L7.79366278,30.0564371 C7.74495239,29.6933017 8.47560827,27.5796675 10.0635671,25.8757245 C11.67101,24.143848 14.0383351,22.6447506 17.4285784,22.6354394 L17.4285784,22.6354394 Z M19.1529263,15.8289786 C13.4830366,15.8196675 9.90769381,18.2312589 7.79366278,20.3169596 L7.79366278,16.4621378 L0,16.4621378 L0,98 L7.79366278,98 L7.79366278,78.8655582 C9.81027302,80.7650356 13.0056748,82.7669359 18.2176867,82.7390024 C21.4325726,82.7390024 25.07611,81.7985748 27.9597652,79.2938717 C30.8531625,76.8171021 32.8600307,72.7946793 32.8502886,66.9938242 L32.8502886,35.9131591 C32.8405465,31.7138242 32.8600307,28.3059382 31.7396917,24.9166746 C30.3563165,20.735962 26.4887114,15.8196675 19.1529263,15.8289786 L19.1529263,15.8289786 Z M50.5126769,44.3583848 L50.5126769,34.0043705 C50.5126769,32.5052732 50.532161,29.544323 51.6622421,27.0768646 C52.7923232,24.6373397 54.7212548,22.6819952 59.212353,22.6354394 C63.6157724,22.6819952 65.5252198,24.7304513 66.665043,27.1885986 C67.7756399,29.6653682 67.785382,32.5052732 67.785382,33.5015677 L67.785382,44.3583848 L50.5126769,44.3583848 L50.5126769,44.3583848 Z M58.9493168,15.8289786 C53.9516306,15.8196675 49.8599576,17.3187648 47.0737232,20.167981 C44.2777467,23.0358195 42.8651453,27.1606651 42.8651453,32.2259382 L42.8748874,32.2259382 L42.8748874,65.7181948 C42.835919,71.1372922 43.8588373,75.2900713 47.8920578,78.5582898 C51.5355951,81.7892637 55.6954626,82.3665558 58.9980272,82.3665558 L59.0857059,82.3665558 C64.2002971,82.3665558 68.3796488,80.9233254 71.2438199,78.1206651 C74.1079909,75.3180048 75.5693027,71.239715 75.5693027,66.2303088 L75.5693027,58.120285 L67.912029,58.120285 L67.912029,59.0979572 C67.912029,68.3346318 67.912029,68.7070784 67.0644682,70.6996675 C65.2719258,75.448361 60.8197959,75.3924941 59.3487421,75.4297387 C54.2438929,75.2807601 50.6685501,73.4930166 50.5126769,65.5971496 L50.5126769,50.7830879 L75.5693027,50.7830879 L75.5693027,36.928076 C75.5595606,32.9894537 75.5985289,27.84038 73.5234662,23.5013777 C71.4776298,19.1530641 67.0060157,15.7824228 58.9493168,15.8289786 L58.9493168,15.8289786 L58.9493168,15.8289786 Z M108.926179,47.5614252 L108.926179,69.6568171 C106.295818,72.3849881 103.451131,75.1690261 98.2293772,75.1690261 C92.6569084,75.1410926 90.6792664,71.239715 90.5818456,66.3513539 C90.6500402,57.4033254 95.6185002,54.824133 102.467181,51.0438005 C106.25685,49.0419002 107.649967,48.3156295 108.926179,47.5614252 L108.926179,47.5614252 Z M117.206946,74.9176247 C116.75881,74.6755344 116.632163,74.647601 116.573711,73.8654632 L116.573711,30.8199525 C116.563969,28.8366746 116.612679,25.1587648 114.751942,21.871924 C112.930174,18.5478385 109.013858,15.8010451 101.960593,15.8289786 C94.0792518,15.791734 89.6758323,18.6130166 87.6105117,22.7751069 C85.5744173,26.8906413 85.6133856,32.0304038 85.6036435,36.9373872 L85.6036435,37.9150594 L93.3875642,37.9150594 L93.3875642,36.9373872 C93.3778222,32.6728741 93.4265326,28.9856532 94.4397087,26.5926841 C95.4821111,24.2462708 97.0603278,22.9613302 101.298132,22.9054632 C105.03909,22.9240855 106.646533,23.9390024 107.610999,25.4753444 C108.594949,27.0489311 108.799532,29.5163895 108.78979,32.3562945 L108.78979,39.2465558 C105.701551,41.4998575 104.707859,41.9188599 98.1416985,45.2336342 C91.2150807,48.6135867 82.7589566,53.5112589 82.807667,66.2303088 C82.807667,70.3179097 83.7623907,74.2751544 86.0420371,77.2826603 C88.3314255,80.2994774 92.0334153,82.2548219 97.0213595,82.2268884 C102.798412,82.2455107 106.607565,79.936342 109.423025,77.9158195 C110.864853,81.2585273 113.972576,82.2455107 118.687742,82.2455107 L120.577705,82.2455107 L120.577705,75.1690261 L119.554787,75.1690261 C118.570837,75.1876485 117.664824,75.1224703 117.206946,74.9176247 L117.206946,74.9176247 Z M135.13237,24.4976722 L135.13237,16.2293587 L127.621228,16.2293587 L127.621228,82.2455107 L135.259018,82.2455107 L135.259018,36.2576722 C139.925473,26.1364371 143.150101,25.2146318 148.371855,23.7620903 L149.121995,23.5665558 L149.121995,13.9667458 L147.641199,14.6837055 C140.636645,17.9984798 137.207433,21.4063658 135.13237,24.4976722 L135.13237,24.4976722 Z M255.622397,0 L247.692345,0 L247.692345,16.303848 L240.629338,16.303848 L240.629338,23.4920665 L247.80925,23.4920665 L247.80925,74.2099762 C247.80925,76.7239905 248.354806,78.9493587 250.157091,80.5136342 C251.949633,82.0313539 254.677415,82.7017577 258.720378,82.7017577 C260.756472,82.7017577 262.792567,82.5714014 264.848145,82.3106888 L265.744417,82.208266 L265.744417,75.2993824 L264.614335,75.4018052 C263.18225,75.5135392 260.912346,75.6438955 259.519228,75.6438955 C257.200614,75.5973397 256.518668,75.0945368 256.109501,74.3961995 C255.671107,73.6513064 255.593171,72.2360095 255.622397,70.504133 L255.622397,23.4920665 L265.744417,23.4920665 L265.744417,16.303848 L255.602913,16.303848 L255.622397,0 L255.622397,0 Z M282.247498,24.4976722 L282.247498,16.2293587 L274.726613,16.2293587 L274.726613,82.2455107 L282.374145,82.2455107 L282.374145,36.2576722 C287.0406,26.1364371 290.27497,25.2146318 295.47724,23.7620903 L296.22738,23.5665558 L296.22738,13.9667458 L294.746584,14.6837055 C287.751772,17.9984798 284.32256,21.4063658 282.247498,24.4976722 L282.247498,24.4976722 Z M308.687498,44.3583848 L308.697241,33.9950594 C308.687498,32.4866508 308.716725,29.5350119 309.807838,27.0675534 C310.976887,24.6280285 312.886334,22.6819952 317.387175,22.6261283 C321.790594,22.6819952 323.690299,24.7211401 324.830123,27.1792874 C325.930977,29.656057 325.950462,32.495962 325.950462,33.4922565 L325.950462,33.4922565 L325.950462,44.3583848 L308.687498,44.3583848 L308.687498,44.3583848 Z M317.114396,15.8289786 C312.126452,15.8103563 308.025037,17.3094537 305.248545,20.167981 C302.442826,23.0265083 301.030225,27.1513539 301.030225,32.2166271 L301.039967,32.2166271 L301.039967,65.7088836 C301.010741,71.127981 302.033659,75.2900713 306.057137,78.5582898 C309.720159,81.7985748 313.918995,82.3572447 317.192333,82.3572447 L317.241043,82.3572447 C322.375119,82.3572447 326.55447,80.9233254 329.408899,78.1113539 C332.282813,75.2993824 333.734382,71.2304038 333.734382,66.2209976 L333.734382,58.1109739 L326.086851,58.1109739 L326.086851,59.0886461 C326.077109,68.3253207 326.077109,68.6977672 325.229548,70.6903563 C323.446747,75.4390499 318.994618,75.3831829 317.533306,75.4204276 C312.418715,75.2807601 308.83363,73.4930166 308.697241,65.5878385 L308.697241,50.7737767 L333.734382,50.7737767 L333.734382,36.928076 C333.734382,32.9801425 333.773351,27.8310689 331.698288,23.4920665 C329.642709,19.143753 325.190579,15.7824228 317.114396,15.8289786 L317.114396,15.8289786 L317.114396,15.8289786 Z M350.568694,44.3583848 L350.578436,34.0043705 C350.568694,32.5052732 350.59792,29.544323 351.698775,27.0768646 C352.858082,24.6373397 354.76753,22.6819952 359.26837,22.6354394 C363.662047,22.6819952 365.581237,24.7304513 366.72106,27.1885986 C367.821915,29.6746793 367.841399,32.5052732 367.841399,33.5015677 L367.831657,33.5015677 L367.831657,44.3583848 L350.568694,44.3583848 L350.568694,44.3583848 Z M375.62532,50.7737767 L375.62532,36.9373872 C375.62532,32.9801425 375.664288,27.84038 373.589225,23.5013777 C371.533647,19.1530641 367.081517,15.791734 359.015076,15.8289786 C354.007648,15.8196675 349.925717,17.3187648 347.12974,20.167981 C344.343506,23.0358195 342.921162,27.1606651 342.921162,32.2259382 L342.921162,65.7181948 C342.901678,71.1372922 343.924596,75.2993824 347.938333,78.567601 C351.591612,81.7892637 355.761222,82.3665558 359.054044,82.3665558 L359.151465,82.3665558 C364.266056,82.3665558 368.445408,80.9233254 371.299837,78.1206651 C374.17375,75.3086936 375.635062,71.239715 375.62532,66.2209976 L375.62532,58.120285 L367.977788,58.120285 L367.977788,59.0979572 C367.968046,68.3346318 367.968046,68.7070784 367.110743,70.6996675 C365.337685,75.448361 360.885555,75.3924941 359.404759,75.4297387 C354.29991,75.2900713 350.734309,73.5023278 350.578436,65.5971496 L350.578436,50.7737767 L375.62532,50.7737767 L375.62532,50.7737767 Z M226.259773,63.6604276 C224.632845,51.2300238 218.076427,39.0603325 221.359507,25.4380998 C221.924548,19.2927316 217.111961,15.7265558 212.318858,13.2032304 C215.085609,8.01691211 220.609367,4.95353919 225.266081,2.54194774 C225.344017,0.986983373 224.194452,-0.111733967 222.353199,0.0093111639 C222.353199,0.0093111639 218.125137,3.17510689 215.923427,5.54945368 C215.689617,5.81016627 215.426581,6.10812352 215.173287,6.41539192 C210.672447,4.13415677 204.59339,2.83059382 199.62493,3.15648456 C194.948732,0.484180523 190.165372,-0.707648456 184.631871,0.484180523 C169.765459,2.58850356 170.320758,18.1195249 166.29728,23.8831354 C165.050293,25.6615677 163.666918,27.4493112 163.666918,27.4493112 C171.353418,30.2333492 179.244502,27.3003325 185.245622,22.3933492 C191.500037,18.1660808 194.198592,9.63705463 199.751577,5.04665083 C204.759005,4.19002375 208.987067,5.46565321 214.208821,7.61653207 L214.218564,7.6072209 C212.348084,9.99087886 210.506832,12.784228 210.506832,12.784228 C203.424341,10.9778622 195.445578,14.2181473 193.594583,20.2517815 C189.161938,36.6580523 168.859446,45.6991924 169.872622,63.8838955 C170.116174,74.0144418 178.825592,82.8041805 188.031857,86.5565796 C197.618062,89.3219952 208.217443,89.2009501 216.293626,83.2976722 C222.859787,78.8376247 227.146302,71.4818052 226.259773,63.6604276 L226.259773,63.6604276 Z"></path>
    </symbol>

</svg>
